<?xml version="1.0" encoding="utf-8"?>
<!-- Generator: Adobe Illustrator 26.0.2, SVG Export Plug-In . SVG Version: 6.00 Build 0)  -->
<svg version="1.1" id="Layer_1" xmlns="http://www.w3.org/2000/svg" xmlns:xlink="http://www.w3.org/1999/xlink" x="0px" y="0px"
	 viewBox="0 0 1000 1000" style="enable-background:new 0 0 1000 1000;" xml:space="preserve">
<style type="text/css">
	.st0{fill:#209CED;}
	.st1{fill:#FCFDFE;}
	.st2{fill:#FEFEFE;}
</style>
<g>
	<path class="st0" d="M244,714c0-142.67,0-285.33,0-428c6.4-22.12,20.44-36.42,43-42c142,0,284,0,426,0
		c22.87,5.79,37.21,20.13,43,43c0,142.33,0,284.67,0,427c-6.4,22.12-20.44,36.42-43,42c-142.33,0-284.67,0-427,0
		C264.19,749.81,250.19,735.81,244,714z M682.31,550.25c5.76-38.99-16.03-73.87-50.71-82.13c-40.95-9.76-79.38,9.71-90.96,46.08
		c-13.76,43.2,4.24,87.83,41.42,102.72c34.23,13.7,83.35,1.7,96.15-23.83c-4.77-5.83-9.64-11.79-14.56-17.82
		c-22.67,23.94-51.54,30.35-75.52,16.68c-15.81-9.01-21.62-23.67-22.18-41.7C605.2,550.25,643.65,550.25,682.31,550.25z
		 M505.99,479.38c-23.73-13.26-48.12-17.41-73.62-9.87c-18.02,5.32-32.82,15.09-33.42,36.58c-0.61,22.2,13.72,33.09,32.28,39.91
		c9.67,3.55,19.82,5.79,29.53,9.26c9.45,3.37,17.77,8.29,17.3,20.33c-0.45,11.78-8.24,17.42-18.2,20.39
		c-20.23,6.04-38.4,0.82-55.3-12.08c-4.21,7.61-8.18,14.79-12.41,22.45c24.94,16.68,51.54,19.23,79.32,12.61
		c22.04-5.26,37.33-17.53,38.3-42.16c0.99-24.87-15.13-35.5-35.75-42.25c-11.04-3.61-22.21-6.92-33-11.16
		c-7.48-2.94-12.09-8.81-11.45-17.52c0.62-8.42,6.32-12.44,13.51-14.86c18.09-6.1,34.71-2.25,50.56,8.07
		C497.72,492.57,501.66,486.28,505.99,479.38z M322.35,470.46c0,49.27,0,98.26,0,147.21c10.43,0,20.5,0,30.63,0
		c0-49.2,0-98.06,0-147.21C342.62,470.46,332.57,470.46,322.35,470.46z M317.43,398.87c1.14,12.52,7.79,20.28,20.26,20.5
		c12.93,0.23,21.07-7.4,21-20.38c-0.06-12.68-8.26-20.3-20.76-20.32C325.49,378.66,318.83,386.59,317.43,398.87z"/>
	<path class="st1" d="M756,287c-5.79-22.87-20.13-37.21-43-43C756,244,756,244,756,287z"/>
	<path class="st1" d="M287,244c-22.56,5.58-36.6,19.88-43,42c0-14,0-28,0-42C258.33,244,272.67,244,287,244z"/>
	<path class="st1" d="M713,756c22.56-5.58,36.6-19.88,43-42C756,756,756,756,713,756z"/>
	<path class="st1" d="M244,714c6.19,21.81,20.19,35.81,42,42c-13.83,0-27.67,0-42,0C244,742,244,728,244,714z"/>
	<path class="st1" d="M682.31,550.25c-38.67,0-77.11,0-116.37,0c0.57,18.03,6.38,32.69,22.18,41.7
		c23.98,13.67,52.85,7.26,75.52-16.68c4.93,6.03,9.8,11.99,14.56,17.82c-12.79,25.53-61.92,37.53-96.15,23.83
		c-37.19-14.89-55.19-59.52-41.42-102.72c11.59-36.37,50.01-55.84,90.96-46.08C666.28,476.39,688.07,511.26,682.31,550.25z
		 M652.7,526.83c1.01-20.8-17.51-37.44-41.13-37.42c-24.97,0.03-44.94,16.86-44.12,37.42C595.73,526.83,624.01,526.83,652.7,526.83z
		"/>
	<path class="st1" d="M505.99,479.38c-4.33,6.9-8.28,13.19-12.36,19.69c-15.85-10.32-32.47-14.18-50.56-8.07
		c-7.18,2.42-12.89,6.44-13.51,14.86c-0.64,8.7,3.97,14.57,11.45,17.52c10.79,4.25,21.96,7.55,33,11.16
		c20.62,6.75,36.73,17.38,35.75,42.25c-0.98,24.63-16.26,36.91-38.3,42.16c-27.78,6.62-54.38,4.07-79.32-12.61
		c4.24-7.66,8.21-14.84,12.41-22.45c16.91,12.91,35.07,18.12,55.3,12.08c9.95-2.97,17.74-8.61,18.2-20.39
		c0.47-12.05-7.85-16.96-17.3-20.33c-9.71-3.47-19.85-5.71-29.53-9.26c-18.57-6.82-32.9-17.7-32.28-39.91
		c0.59-21.49,15.39-31.26,33.42-36.58C457.88,461.98,482.26,466.12,505.99,479.38z"/>
	<path class="st2" d="M322.35,470.46c10.22,0,20.27,0,30.63,0c0,49.15,0,98.01,0,147.21c-10.14,0-20.21,0-30.63,0
		C322.35,568.72,322.35,519.73,322.35,470.46z"/>
	<path class="st1" d="M317.43,398.87c1.4-12.28,8.06-20.21,20.5-20.2c12.5,0.01,20.7,7.64,20.76,20.32
		c0.06,12.97-8.07,20.6-21,20.38C325.22,419.15,318.57,411.39,317.43,398.87z"/>
	<path class="st0" d="M652.7,526.83c-28.69,0-56.97,0-85.24,0c-0.82-20.56,19.14-37.39,44.12-37.42
		C635.19,489.39,653.7,506.03,652.7,526.83z"/>
</g>
</svg>
